<svg width="100" height="100" viewBox="0 0 100 100" fill="none" xmlns="http://www.w3.org/2000/svg">
<path d="M55.4446 8.00003C54.6894 8.00556 53.9641 8.2957 53.4134 8.81253L50.0696 11.4063L46.7259 8.81253C46.1769 8.37357 45.4911 8.14131 44.7884 8.15628C44.172 8.17936 43.5777 8.39186 43.0864 8.76484C42.5951 9.13782 42.2308 9.65315 42.0429 10.2407C41.855 10.8282 41.8528 11.4593 42.0365 12.0481C42.2202 12.637 42.581 13.1549 43.0696 13.5313L43.3821 13.7813H34.1321C31.6473 13.7813 29.3821 15.9534 29.3821 18.5V34.75C29.3821 37.2966 31.6473 39.4688 34.1321 39.4688H40.5071V42.3125H32.7884C30.3763 42.3125 28.3861 44.0314 27.8509 46.25H25.7571V46.0625C25.7571 44.0633 24.0529 42.4063 22.0696 42.4063H12.7571C10.7738 42.4063 9.06963 44.0633 9.06963 46.0625V66.4063C9.06963 67.6408 9.73057 68.7645 10.6946 69.4375L10.4134 69.6563C10.0572 69.8783 9.75148 70.1726 9.51611 70.5201C9.28074 70.8676 9.12091 71.2607 9.04694 71.6739C8.97298 72.0871 8.98654 72.5111 9.08674 72.9188C9.18693 73.3264 9.37154 73.7084 9.62863 74.0402C9.88571 74.372 10.2096 74.6462 10.5792 74.845C10.9489 75.0438 11.3562 75.1628 11.7747 75.1944C12.1933 75.2259 12.6138 75.1693 13.0091 75.0282C13.4044 74.887 13.7657 74.6645 14.0696 74.375L17.4134 71.8125L20.7259 74.375C21.0323 74.6473 21.3913 74.8539 21.7807 74.982C22.1701 75.1101 22.5816 75.1571 22.9899 75.1201C23.3981 75.083 23.7944 74.9627 24.1544 74.7665C24.5143 74.5703 24.8302 74.3025 25.0827 73.9795C25.3351 73.6565 25.5186 73.2852 25.622 72.8885C25.7253 72.4918 25.7463 72.0782 25.6836 71.673C25.6208 71.2679 25.4758 70.88 25.2573 70.5331C25.0389 70.1863 24.7516 69.8878 24.4134 69.6563L24.1321 69.4375C25.0962 68.7645 25.7571 67.6408 25.7571 66.4063V52.25H27.6946V69C27.6946 71.7689 30.0788 74.0313 32.7884 74.0313H33.1946V76.1875H27.4446C25.3439 76.1875 23.6009 77.8117 23.6009 80V88.4375C23.6009 90.6267 25.6423 92.1875 27.4446 92.1875H41.5071C43.3086 92.1875 45.3509 90.6247 45.3509 88.4375V80C45.3509 77.8137 43.6067 76.1875 41.5071 76.1875H39.1946V74.0313H60.9446V76.1875H58.6321C56.5326 76.1875 54.7884 77.8137 54.7884 80V88.4375C54.7884 90.6247 56.8306 92.1875 58.6321 92.1875H72.6946C74.497 92.1875 76.5384 90.6267 76.5384 88.4375V80C76.5384 77.8117 74.7953 76.1875 72.6946 76.1875H66.9446V74.0313H67.3509C70.0604 74.0313 72.4446 71.7685 72.4446 69V52.25H74.3821V66.4063C74.3821 67.6408 75.0431 68.7645 76.0071 69.4375L75.7259 69.6563C75.3876 69.8878 75.1004 70.1863 74.8819 70.5331C74.6635 70.88 74.5184 71.2679 74.4557 71.673C74.393 72.0782 74.414 72.4918 74.5173 72.8885C74.6207 73.2852 74.8042 73.6565 75.0566 73.9795C75.309 74.3025 75.6249 74.5703 75.9849 74.7665C76.3448 74.9627 76.7412 75.083 77.1494 75.1201C77.5576 75.1571 77.9692 75.1101 78.3585 74.982C78.7479 74.8539 79.1069 74.6473 79.4134 74.375L82.7259 71.8125L86.0696 74.375C86.3736 74.6645 86.7349 74.887 87.1302 75.0282C87.5255 75.1693 87.946 75.2259 88.3645 75.1944C88.7831 75.1628 89.1904 75.0438 89.56 74.845C89.9297 74.6462 90.2535 74.372 90.5106 74.0402C90.7677 73.7084 90.9523 73.3264 91.0525 72.9188C91.1527 72.5111 91.1663 72.0871 91.0923 71.6739C91.0184 71.2607 90.8585 70.8676 90.6232 70.5201C90.3878 70.1726 90.0821 69.8783 89.7259 69.6563L89.4446 69.4375C90.4087 68.7645 91.0696 67.6408 91.0696 66.4063V46.0625C91.0696 44.0633 89.3654 42.4063 87.3821 42.4063H78.0696C76.0863 42.4063 74.3821 44.0633 74.3821 46.0625V46.25H72.2884C71.7532 44.0314 69.763 42.3125 67.3509 42.3125H59.6634V39.4688H65.9446C68.4295 39.4688 70.7571 37.4428 70.7571 34.75V18.5C70.7571 15.8073 68.4296 13.7813 65.9446 13.7813H56.7571L57.0696 13.5313C57.6184 13.1819 58.0388 12.6637 58.2674 12.0546C58.496 11.4456 58.5205 10.7788 58.3371 10.1546C58.1537 9.53044 57.7724 8.98279 57.2507 8.59417C56.729 8.20556 56.0952 7.99704 55.4446 8.00003ZM35.3821 19.7813H64.7571V33.4688H35.3821V19.7813ZM41.2259 24.0625C39.7947 24.0625 38.6321 25.2213 38.6321 26.6563C38.6321 28.0913 39.7948 29.2188 41.2259 29.2188C42.6574 29.2188 43.8196 28.0913 43.8196 26.6563C43.8196 25.2213 42.6574 24.0625 41.2259 24.0625ZM58.9134 24.0625C57.4819 24.0625 56.3196 25.2213 56.3196 26.6563C56.3196 28.0913 57.4819 29.2188 58.9134 29.2188C60.3445 29.2188 61.5071 28.0913 61.5071 26.6563C61.5071 25.2213 60.3446 24.0625 58.9134 24.0625ZM46.5071 39.4688H53.6634V42.3125H46.5071V39.4688ZM40.4446 48.3125H59.6946L56.9134 53.7188H43.2259L40.4446 48.3125ZM33.6946 48.3438L38.7259 58.0938C38.9776 58.5818 39.3583 58.9913 39.8267 59.2779C40.2951 59.5644 40.8331 59.7169 41.3821 59.7188H58.7571C59.3062 59.7169 59.8442 59.5644 60.3126 59.2779C60.7809 58.9913 61.1617 58.5818 61.4134 58.0938L66.4446 48.3438V68.0313H33.6946V48.3438ZM15.0696 48.4063H19.7571V64.0938H15.0696V48.4063ZM80.3821 48.4063H85.0696V64.0938H80.3821V48.4063ZM29.6009 82.1875H39.3509V86.1875H29.6009V82.1875ZM60.7884 82.1875H70.5384V86.1875H60.7884V82.1875Z" fill="navy"/>
</svg>
