<svg width="100" height="100" viewBox="0 0 100 100" fill="none" xmlns="http://www.w3.org/2000/svg">
<path d="M35.8248 53.8276V62.6792C35.8248 63.5673 36.0589 64.4401 36.504 65.2112L40.2374 71.6798C40.4628 72.0704 40.7885 72.395 41.1815 72.6208C41.5744 72.8466 42.0207 72.9655 42.4751 72.9655H57.5249C57.9793 72.9655 58.4256 72.8466 58.8186 72.6208C59.2115 72.395 59.5373 72.0704 59.7627 71.6798L63.4961 65.2112C63.9411 64.4401 64.1752 63.5673 64.1752 62.6792V53.8276M35.8248 53.8276H64.1752M35.8248 53.8276H33.2475C31.8804 53.8276 30.5693 54.3653 29.6026 55.3224C28.636 56.2794 28.0929 57.5775 28.0929 58.931V69.1379C30.1435 69.1379 32.1102 68.3314 33.5602 66.8958C35.0102 65.4602 35.8248 63.513 35.8248 61.4828M35.8248 53.8276V61.4828M64.1752 53.8276V61.4828M64.1752 53.8276H66.7525C68.1196 53.8276 69.4307 54.3653 70.3974 55.3224C71.3641 56.2794 71.9071 57.5775 71.9071 58.931V69.1379C69.8565 69.1379 67.8899 68.3314 66.4398 66.8958C64.9898 65.4602 64.1752 63.513 64.1752 61.4828M35.8248 61.4828H28.0929M64.1752 61.4828H71.9071M45.8763 79.3448C45.8763 79.3448 41.7526 83.1724 50 87C58.2474 83.1724 54.1237 79.3448 54.1237 79.3448M74.3169 33.5669C73.8659 38.2621 72.0489 47.4483 64.9613 47.4483C55.4381 47.4483 58.1572 44.8966 50 44.8966C41.8428 44.8966 44.5619 47.4483 35.0387 47.4483C27.9511 47.4483 26.1341 38.2621 25.6831 33.5669V33.5541M50 66.5862C52.1351 66.5862 53.866 64.8725 53.866 62.7586C53.866 60.6447 52.1351 58.931 50 58.931M50 66.5862C47.8649 66.5862 46.134 64.8725 46.134 62.7586C46.134 60.6447 47.8649 58.931 50 58.931M50 66.5862V72.9655M50 58.931V53.8276M50 72.9655H44.8454V65.3103M50 72.9655H55.1546V65.3103M59.0206 53.8276V61.4828C59.0213 61.9856 58.9217 62.4836 58.7277 62.9483C58.5337 63.413 58.2489 63.8352 57.8898 64.1908C57.5307 64.5463 57.1042 64.8282 56.6349 65.0204C56.1655 65.2125 55.6625 65.311 55.1546 65.3103M55.1546 65.3103H52.8737M47.1263 65.3103H44.8454M44.8454 65.3103C44.3375 65.311 43.8345 65.2125 43.3651 65.0204C42.8958 64.8282 42.4694 64.5463 42.1102 64.1908C41.7511 63.8352 41.4664 63.413 41.2723 62.9483C41.0783 62.4836 40.9787 61.9856 40.9794 61.4828V53.8276M63.9955 53.8276H36.0045C34.3314 53.8276 32.6782 53.4692 31.1582 52.7771C29.6382 52.0849 28.2875 51.0754 27.1987 49.8177L26.7921 49.3481C25.5988 47.9697 24.7526 46.3309 24.3229 44.5661C23.8933 42.8012 23.8923 40.9607 24.3203 39.1954L28.5363 21.803C29.1443 19.2948 30.5875 17.0624 32.6334 15.4654C34.6793 13.8685 37.2087 13 39.8139 13H60.1861C62.7913 13 65.3207 13.8685 67.3666 15.4654C69.4125 17.0624 70.8557 19.2948 71.4637 21.803L75.6798 39.1954C76.1077 40.9607 76.1067 42.8012 75.6771 44.5661C75.2474 46.3309 74.4012 47.9697 73.2079 49.348L72.8013 49.8177C71.7125 51.0753 70.3618 52.0849 68.8418 52.777C67.3218 53.4692 65.6686 53.8276 63.9955 53.8276ZM42.2681 72.9655H57.7319V75.5172C57.7319 76.5324 57.3246 77.5059 56.5996 78.2238C55.8746 78.9416 54.8913 79.3448 53.866 79.3448H46.134C45.1087 79.3448 44.1254 78.9416 43.4004 78.2238C42.6754 77.5059 42.2681 76.5324 42.2681 75.5172V72.9655ZM56.4433 41.069C56.4433 39.3771 55.7644 37.7545 54.5561 36.5581C53.3477 35.3618 51.7089 34.6897 50 34.6897C48.2911 34.6897 46.6523 35.3618 45.4439 36.5581C44.2356 37.7545 43.5567 39.3771 43.5567 41.069H56.4433ZM40.9794 24.4828C40.9794 25.1874 40.4025 25.7586 39.6908 25.7586C38.9791 25.7586 38.4021 25.1874 38.4021 24.4828C38.4021 23.7781 38.9791 23.2069 39.6908 23.2069C40.4025 23.2069 40.9794 23.7781 40.9794 24.4828ZM40.9794 29.5862C40.9794 30.2908 40.4025 30.8621 39.6908 30.8621C38.9791 30.8621 38.4021 30.2908 38.4021 29.5862C38.4021 28.8816 38.9791 28.3103 39.6908 28.3103C40.4025 28.3103 40.9794 28.8816 40.9794 29.5862ZM35.8248 24.4828C35.8248 25.1874 35.2479 25.7586 34.5362 25.7586C33.8244 25.7586 33.2475 25.1874 33.2475 24.4828C33.2475 23.7781 33.8244 23.2069 34.5362 23.2069C35.2479 23.2069 35.8248 23.7781 35.8248 24.4828ZM46.134 24.4828C46.134 25.1874 45.5571 25.7586 44.8454 25.7586C44.1337 25.7586 43.5567 25.1874 43.5567 24.4828C43.5567 23.7781 44.1337 23.2069 44.8454 23.2069C45.5571 23.2069 46.134 23.7781 46.134 24.4828ZM61.5979 24.4828C61.5979 25.1874 61.0209 25.7586 60.3092 25.7586C59.5975 25.7586 59.0206 25.1874 59.0206 24.4828C59.0206 23.7781 59.5975 23.2069 60.3092 23.2069C61.0209 23.2069 61.5979 23.7781 61.5979 24.4828ZM61.5979 29.5862C61.5979 30.2908 61.0209 30.8621 60.3092 30.8621C59.5975 30.8621 59.0206 30.2908 59.0206 29.5862C59.0206 28.8816 59.5975 28.3103 60.3092 28.3103C61.0209 28.3103 61.5979 28.8816 61.5979 29.5862ZM56.4433 24.4828C56.4433 25.1874 55.8663 25.7586 55.1546 25.7586C54.4429 25.7586 53.866 25.1874 53.866 24.4828C53.866 23.7781 54.4429 23.2069 55.1546 23.2069C55.8663 23.2069 56.4433 23.7781 56.4433 24.4828ZM66.7525 24.4828C66.7525 25.1874 66.1756 25.7586 65.4639 25.7586C64.7522 25.7586 64.1752 25.1874 64.1752 24.4828C64.1752 23.7781 64.7522 23.2069 65.4639 23.2069C66.1756 23.2069 66.7525 23.7781 66.7525 24.4828Z" stroke="navy" stroke-width="2" stroke-linecap="round" stroke-linejoin="round"/>
</svg>
