<svg width="100" height="100" viewBox="0 0 100 100" fill="none" xmlns="http://www.w3.org/2000/svg">
<path d="M78.4631 47.0016C82.1076 47.0016 85.0687 43.9767 85.0687 40.2502V32.4056C88.4671 31.5582 91 28.424 91 24.6884C91 22.0189 89.6971 19.5498 87.5013 18.0738L85.4696 21.1078C86.6449 21.9004 87.3464 23.2398 87.3464 24.6884C87.3464 27.0573 85.506 28.9798 83.2464 28.9798C80.9778 28.9798 79.1373 27.0573 79.1373 24.6884C79.1373 23.2398 79.8389 21.9004 81.0142 21.1078L78.9733 18.0738C76.7867 19.5498 75.4838 22.0189 75.4838 24.6884C75.4838 28.424 78.0167 31.5582 81.4151 32.4056V40.2502C81.4151 41.954 80.094 43.348 78.4631 43.348H72.3313V25.3809C72.3313 21.4176 69.0969 18.1922 65.1336 18.1922H34.8573C30.894 18.1922 27.6687 21.4176 27.6687 25.3809V43.348H21.5369C19.906 43.348 18.5849 41.954 18.5849 40.2502V32.4056C21.9833 31.5582 24.5162 28.424 24.5162 24.6884C24.5162 22.0189 23.2133 19.5498 21.0267 18.0738L18.9858 21.1078C20.1611 21.9004 20.8627 23.2398 20.8627 24.6884C20.8627 27.0573 19.0222 28.9798 16.7536 28.9798C14.494 28.9798 12.6536 27.0573 12.6536 24.6884C12.6536 23.2398 13.3551 21.9004 14.5304 21.1078L12.4987 18.0738C10.3029 19.5498 9 22.0189 9 24.6884C9 28.424 11.5329 31.5582 14.9313 32.4056V40.2502C14.9313 43.9767 17.8924 47.0016 21.5369 47.0016H27.6687V55.0102H23.924C17.9927 55.0102 13.1638 59.8391 13.1638 65.7796V70.3169C13.1638 76.2573 17.9927 81.0862 23.924 81.0862H76.076C82.0073 81.0862 86.8362 76.2573 86.8362 70.3169V65.7796C86.8362 59.8391 82.0073 55.0102 76.076 55.0102H72.3313V47.0016H78.4631ZM61.2796 71.7018H39.1851C39.1031 71.2553 39.0576 70.7907 39.0576 70.3169V65.7796C39.0576 65.3058 39.1031 64.8502 39.1851 64.3947H61.2796C61.2249 64.8502 61.1793 65.3058 61.1793 65.7796V70.3169C61.1793 70.7907 61.2249 71.2462 61.2796 71.7018ZM39.996 61.9984C41.0893 59.912 43.0573 58.3631 45.408 57.8256H64.8147C63.53 58.9553 62.5187 60.3767 61.89 61.9984H39.996ZM30.484 25.3809C30.484 22.9664 32.452 21.0076 34.8573 21.0076H61.2704C61.1884 21.1078 61.1064 21.2171 61.0244 21.3173C59.7033 22.6202 58.8924 24.4242 58.8924 26.4196V55.0102H30.484V25.3809ZM23.924 57.8256H40.2967C39.0029 58.9553 38.0007 60.3767 37.372 61.9984H16.9358C18.2842 59.5202 20.9082 57.8256 23.924 57.8256ZM16.1067 71.7018C16.0247 71.2553 15.9791 70.7907 15.9791 70.3169V65.7796C15.9791 65.2784 16.0338 64.7864 16.1158 64.3127C16.2524 64.3673 16.4073 64.3947 16.5622 64.3947H36.7616C36.6978 64.8502 36.6613 65.3058 36.6613 65.7796V70.3169C36.6613 70.7907 36.6978 71.2462 36.7616 71.7018H16.1067ZM23.924 78.2709C20.9082 78.2709 18.2842 76.5762 16.9358 74.098H37.372C38.0007 75.7198 39.0029 77.1502 40.2967 78.2709H23.924ZM45.408 78.2709C43.0573 77.7333 41.0893 76.1844 39.996 74.098H61.89C62.5187 75.7198 63.5209 77.1502 64.8147 78.2709H45.408ZM76.076 57.8256C80.4584 57.8256 84.0209 61.3971 84.0209 65.7796V70.3169C84.0209 74.6993 80.4584 78.2709 76.076 78.2709H69.926C67.1927 77.6513 64.9787 75.6469 64.0493 73.032C64.0584 72.9864 63.9582 72.3487 63.7942 72.1482C63.6576 71.556 63.5756 70.9456 63.5756 70.3169V65.7796C63.5756 65.2238 63.6302 64.6771 63.7396 64.1487C63.9036 63.3924 64.186 62.9278 64.1496 62.8002C65.1244 60.322 67.2838 58.4269 69.926 57.8256H76.076Z" fill="navy"/>
<path d="M51.1717 30.535H35.9853C34.2186 30.535 32.7818 31.9719 32.7818 33.7385V43.358C32.7818 45.1247 34.2186 46.5615 35.9853 46.5615H51.1708C52.9374 46.5615 54.3742 45.1247 54.3742 43.358V33.7385C54.3751 31.9719 52.9374 30.535 51.1717 30.535ZM41.8537 41.431C41.8537 42.2738 41.164 42.9626 40.3222 42.9626H39.5386C38.6958 42.9626 38.007 42.2729 38.007 41.431V35.6664C38.007 34.8236 38.6967 34.1348 39.5386 34.1348H40.3222C41.1649 34.1348 41.8537 34.8246 41.8537 35.6664V41.431ZM49.1517 41.431C49.1517 42.2738 48.462 42.9626 47.6202 42.9626H46.8366C45.9938 42.9626 45.305 42.2729 45.305 41.431V35.6664C45.305 34.8236 45.9947 34.1348 46.8366 34.1348H47.6202C48.4629 34.1348 49.1517 34.8246 49.1517 35.6664V41.431Z" fill="navy"/>
<path d="M74.2994 74.9563C78.1141 74.9563 81.2065 71.8638 81.2065 68.0491C81.2065 64.2344 78.1141 61.142 74.2994 61.142C70.4847 61.142 67.3922 64.2344 67.3922 68.0491C67.3922 71.8638 70.4847 74.9563 74.2994 74.9563Z" fill="navy"/>
</svg>
