<svg width="100" height="100" viewBox="0 0 100 100" fill="none" xmlns="http://www.w3.org/2000/svg">
<path d="M63.6349 7.00001C61.1743 7.00001 58.8888 8.12851 56.1276 9.87501C50.7316 8.25811 45.6421 10.1294 42.4267 12.1562C37.3388 13.2002 33.6649 14.7534 31.1657 17.3438C28.7208 19.8778 27.6056 23.2185 27.0367 27.1562C25.074 29.6372 23.693 32.0541 23.1266 34.6875C22.571 37.2709 22.8735 39.993 23.7835 42.9375C22.3384 47.7273 21.4833 51.5183 22.3446 55.3125C23.1623 58.9144 25.6394 62.2668 29.6017 66.3125C28.9222 67.1753 28.9885 68.2833 28.9761 69.25C26.6537 71.6947 25.1891 74.0823 24.7532 76.5C24.3603 78.6792 24.8417 80.7379 25.6291 82.6563C25.2736 83.1933 24.8471 83.9133 24.8471 85V91C24.8472 92.0472 25.8008 92.9999 26.849 93H69.7659C70.8141 92.9999 71.7678 92.0472 71.7679 91V85C71.7679 84.1007 71.5035 83.4752 71.2048 82.9689C72.6518 80.9916 73.0611 79.092 73.0438 76.8112C72.9868 73.564 69.6606 71.0414 67.6076 69.0938C67.7333 67.7659 67.4011 66.8275 66.7317 65.8125C68.1471 59.543 68.1724 55.4322 66.1374 51.875C64.1278 48.3622 60.5608 45.6037 55.4082 41.0625V40.3125L63.0719 44.4062C63.5785 45.7398 63.9553 47.0226 64.9175 48.9062C65.25 49.5597 65.9666 49.9993 66.7005 50C68.5505 50 69.6743 49.142 70.329 48.9062C73.7793 48.1493 76.4991 45.6353 77.6799 42.625C78.1812 41.2704 78.0251 40.1858 77.6798 39.0938C75.5891 32.1105 71.7065 24.4974 67.7013 18.5C68.0831 15.4459 66.7947 13.4858 64.8861 11.5625L65.5431 9.62501C65.9374 8.42691 64.8973 6.99611 63.6349 7.00001V7.00001ZM60.6007 11.9375C61.3152 14.4234 64.569 15.9727 63.7913 18.3438C63.5825 18.928 63.6662 19.6086 64.0103 20.125C67.6829 25.5175 71.3716 32.6793 73.457 39.0312C72.7279 38.6722 71.8703 38.2672 71.2987 37.9375C70.0534 37.3965 68.9004 39.0164 69.7972 40.5312C71.4141 41.6652 72.8756 41.5338 73.9888 40.6875C73.4771 42.7733 71.1504 44.8582 69.328 45.0313C68.6062 43.7132 67.7577 42.9072 66.5441 42.3126C61.0897 37.8278 53.6717 36.9704 50.372 30.8123C49.9551 29.2213 50.3591 27.6996 50.7786 26.281C50.9995 25.635 50.3597 24.868 49.6838 24.9686C49.2979 25.0306 48.9633 25.3392 48.8705 25.7186C48.6323 26.5241 48.3452 27.4944 48.2449 28.5623C43.7299 38.3266 48.2409 45.7385 49.7464 45.9686C47.2711 43.3927 47.5096 36.9138 48.7454 32.1248C49.2495 33.41 50.1622 34.7328 51.6545 35.9998C51.3122 37.9916 51.4043 40.0069 51.4043 41.9998C51.4156 42.5563 51.672 43.1034 52.0924 43.4686C57.7539 48.5066 61.197 51.2771 62.6653 53.8436C64.0949 56.3425 64.1674 59.0651 62.7904 65.0623H59.1618C61.1102 59.8622 58.7778 51.3791 53.6564 49.9683C56.7275 54.2241 59.4818 59.9938 57.4414 65.0623H33.7307C32.6811 62.8807 32.0624 59.9136 31.7913 57.6248C31.6094 55.9893 31.8311 54.4811 32.3231 52.8123C33.0061 53.5366 34.022 53.9616 34.7942 53.9998C35.4887 54.0158 36.0271 53.144 35.7014 52.531C33.1974 47.528 32.2507 44.0964 32.5733 39.656C33.0795 40.3731 33.5319 41.1137 34.1061 41.6873C34.7092 42.2904 35.9654 41.6163 35.7952 40.781C34.807 36.3385 34.5926 33.4627 35.1383 31.4998C35.5608 29.9803 36.6095 28.8981 38.0787 27.8123L38.8294 33.1248C38.904 33.5835 39.3367 33.957 39.8018 33.9643C40.2669 33.9743 40.7111 33.6119 40.8001 33.1558C41.7733 27.8088 43.6425 24.3933 46.2742 21.5621C51.2134 16.6589 56.1439 14.1352 60.6007 11.9375V11.9375ZM53.5939 13.2812C50.2773 15.4881 47.284 17.5533 44.8353 20.1875C42.8542 22.3188 41.2603 24.8744 40.112 28.0938L39.7992 25.8438C39.7065 25.1957 38.8614 24.7912 38.2977 25.125C35.6943 26.6855 33.9357 28.4315 33.2302 30.9688C32.7706 32.6217 32.853 34.7347 33.1676 37.125C32.969 36.8446 32.8066 36.6441 32.6046 36.375C32.1352 35.7596 30.9522 36.0498 30.8216 36.8125C29.981 41.8515 30.6225 45.7429 32.5108 50.2812C32.0419 49.8258 31.1282 50.0189 30.8842 50.625C29.8362 53.2424 29.5551 55.4563 29.8206 57.8438C29.9534 59.0374 30.2211 60.2586 30.5714 61.625C28.0176 58.7468 26.7391 56.5401 26.2546 54.4062C25.6182 51.6026 26.2456 48.4911 27.7561 43.5625C27.8719 43.1661 27.8608 42.7337 27.7248 42.3438C26.7797 39.5682 26.6152 37.4907 27.0366 35.5312C27.458 33.572 28.5168 31.6109 30.4462 29.25C30.6807 28.9655 30.8341 28.6151 30.8841 28.25C31.3684 24.4575 32.2719 21.9612 34.0435 20.125C35.8151 18.2888 38.6862 16.8964 43.5841 15.9375C43.8391 15.8915 44.0849 15.7953 44.3035 15.6562C47.5287 13.3935 50.298 12.9395 53.5938 13.2812H53.5939ZM57.8168 24C58.0768 25.8419 59.8457 26.974 61.8207 27C62.8381 26 62.8271 24.028 61.8207 24C60.4788 23.8994 58.6189 23.6157 57.8168 24ZM32.6359 71.0625H64.0103C66.4915 72.8938 68.8003 74.8697 69.0402 77.1355C69.1738 79.0682 68.0117 80.753 67.0443 81.9375H29.6014C28.7612 80.245 28.5464 78.9959 28.6943 77.2189C28.8717 74.6167 30.9615 72.7772 32.6359 71.0625V71.0625Z" fill="black"/>
</svg>
