<svg width="100" height="100" viewBox="0 0 100 100" fill="none" xmlns="http://www.w3.org/2000/svg">
<path d="M50 58.3333C54.6023 58.3333 58.3333 54.6024 58.3333 50C58.3333 45.3976 54.6023 41.6667 50 41.6667C45.3976 41.6667 41.6666 45.3976 41.6666 50C41.6666 54.6024 45.3976 58.3333 50 58.3333Z" fill="red"/>
<path d="M50 25C36.1667 25 25 36.1667 25 50C25 63.8333 36.1667 75 50 75C63.8333 75 75 63.8333 75 50C75 36.1667 63.8333 25 50 25ZM50 66.6667C40.7778 66.6667 33.3333 59.2222 33.3333 50C33.3333 40.7778 40.7778 33.3333 50 33.3333C59.2222 33.3333 66.6667 40.7778 66.6667 50C66.6667 59.2222 59.2222 66.6667 50 66.6667Z" fill="black"/>
</svg>
