<svg width="100" height="100" viewBox="0 0 100 100" fill="none" xmlns="http://www.w3.org/2000/svg">
<path d="M32.5403 5.50929C30.1012 5.50929 28.0855 7.51348 28.0855 9.95261V21.8197C28.0855 25.9021 31.4269 29.2319 35.5093 29.2319H65.164C69.2463 29.2319 72.5762 25.9021 72.5762 21.8197V9.95261C72.5762 7.51348 70.5692 5.50929 68.13 5.50929H60.7207C60.3274 5.50779 59.9496 5.66264 59.6704 5.93966C59.3912 6.21669 59.2334 6.59321 59.2319 6.98652V14.4103H56.2658V6.98652C56.2642 6.59471 56.1077 6.21952 55.8304 5.94274C55.5531 5.66596 55.1775 5.51009 54.7857 5.50929H45.8846C45.4913 5.50779 45.1135 5.66264 44.8343 5.93966C44.5551 6.21669 44.3974 6.59321 44.3958 6.98652V14.4103H41.4298V6.98652C41.4282 6.59522 41.2721 6.22046 40.9954 5.94377C40.7187 5.66707 40.3438 5.51085 39.9525 5.50929H32.5403ZM34.2348 32.0822C34.8223 33.8606 36.4996 35.1641 38.4637 35.1641H62.1979C64.159 35.1641 65.8202 33.861 66.4037 32.0851C65.9998 32.1535 65.5869 32.1983 65.164 32.1983H35.5093C35.0747 32.1983 34.6494 32.1534 34.2348 32.0822V32.0822ZM64.3877 37.7824C63.6945 38.0005 62.9617 38.13 62.1979 38.13H38.4637C37.7037 38.13 36.9737 38.0033 36.2826 37.7881L30.2897 73.7224H70.3719L64.3877 37.7824ZM42.8433 41.0759C43.0679 41.0629 43.2926 41.1011 43.5003 41.1878C43.708 41.2744 43.8932 41.4072 44.042 41.5761C44.1907 41.7449 44.2991 41.9455 44.3589 42.1624C44.4187 42.3794 44.4284 42.6071 44.3871 42.8284L43.8831 45.7943C43.8582 45.9927 43.7934 46.1841 43.6926 46.3569C43.5919 46.5296 43.4572 46.6802 43.2967 46.7996C43.1362 46.9189 42.9533 47.0045 42.7588 47.0514C42.5644 47.0982 42.3625 47.1053 42.1652 47.0721C41.968 47.0389 41.7795 46.9662 41.6112 46.8582C41.4428 46.7503 41.298 46.6095 41.1854 46.4441C41.0729 46.2788 40.9949 46.0923 40.9563 45.8961C40.9177 45.6998 40.9191 45.4978 40.9605 45.3022L41.453 42.3361C41.504 41.998 41.6702 41.688 41.9236 41.4584C42.1769 41.2288 42.5018 41.0937 42.8433 41.0761L42.8433 41.0759ZM41.366 49.9769C41.5898 49.9657 41.8131 50.0053 42.0193 50.0927C42.2255 50.1802 42.4092 50.3133 42.5567 50.4819C42.7041 50.6505 42.8114 50.8503 42.8706 51.0664C42.9298 51.2824 42.9393 51.509 42.8983 51.7292L40.4247 66.5508C40.3988 66.7479 40.3336 66.938 40.2329 67.1095C40.1322 67.2809 39.998 67.4303 39.8384 67.5489C39.6787 67.6674 39.4969 67.7526 39.3036 67.7995C39.1104 67.8464 38.9097 67.8538 38.7135 67.8216C38.5173 67.7893 38.3296 67.7179 38.1615 67.6117C37.9934 67.5054 37.8484 67.3664 37.7352 67.203C37.6219 67.0396 37.5426 66.8551 37.5021 66.6604C37.4615 66.4658 37.4605 66.265 37.4992 66.07L39.9757 51.2367C40.0267 50.8987 40.193 50.5887 40.4463 50.3591C40.6997 50.1295 41.0246 49.9943 41.366 49.9768V49.9769ZM29.5743 76.6887C27.6581 76.6887 26.0192 77.9415 25.3975 79.6577H75.2671C74.6483 77.9414 73.0153 76.6887 71.0989 76.6887H29.5743ZM25.1194 82.6236C22.6803 82.6236 20.6732 84.6278 20.6732 87.067V93.0021C20.6717 93.3954 20.8265 93.7731 21.1036 94.0523C21.3806 94.3315 21.7572 94.4892 22.1505 94.4907H78.5112C78.7069 94.4915 78.9008 94.4536 79.0818 94.379C79.2628 94.3045 79.4272 94.1948 79.5656 94.0564C79.704 93.918 79.8136 93.7537 79.8882 93.5727C79.9627 93.3917 80.0007 93.1978 80 93.0021V87.067C80 84.6278 77.9814 82.6236 75.5422 82.6236H25.1194Z" fill="DeepSkyBlue"/>
</svg>
